<?xml version="1.0" standalone="no"?>
<!DOCTYPE svg PUBLIC "-//W3C//DTD SVG 20010904//EN"
 "http://www.w3.org/TR/2001/REC-SVG-20010904/DTD/svg10.dtd">
<svg version="1.0" xmlns="http://www.w3.org/2000/svg"
 width="526.000000pt" height="517.000000pt" viewBox="0 0 526.000000 517.000000"
 preserveAspectRatio="xMidYMid meet">

<g transform="translate(0.000000,517.000000) scale(0.100000,-0.100000)"
fill="#000000" stroke="none">
<path d="M2727 4769 c-88 -13 -131 -27 -173 -56 -22 -14 -73 -35 -114 -45
-100 -25 -243 -96 -304 -149 -33 -30 -52 -40 -61 -33 -153 112 -345 194 -453
194 -87 0 -144 -74 -177 -230 -22 -106 -35 -330 -25 -453 9 -114 43 -274 65
-303 12 -17 9 -23 -25 -60 -71 -77 -114 -197 -96 -268 11 -44 63 -93 117 -111
38 -13 49 -21 45 -33 -3 -10 -8 -35 -12 -57 -3 -22 -24 -70 -45 -106 -21 -36
-39 -71 -39 -78 0 -6 -22 -42 -50 -78 -49 -64 -61 -93 -40 -93 6 0 5 -11 -3
-27 -8 -16 -17 -52 -21 -81 -4 -29 -10 -60 -13 -69 -5 -12 -2 -15 10 -10 18 7
20 -2 17 -80 -1 -33 2 -43 14 -43 9 0 16 -7 16 -15 0 -8 4 -15 10 -15 5 0 14
-19 20 -42 13 -50 37 -91 49 -84 4 3 17 -10 27 -29 10 -19 23 -35 29 -36 5 0
27 -23 48 -50 23 -30 44 -48 52 -45 8 3 25 -10 40 -30 17 -23 32 -33 42 -30 9
4 30 -6 49 -24 19 -16 43 -30 53 -30 10 0 29 -8 42 -18 13 -11 33 -22 44 -25
65 -20 150 -54 152 -59 7 -22 -203 -222 -281 -269 -53 -31 -106 -104 -106
-146 0 -26 -14 -51 -61 -110 -33 -42 -79 -115 -102 -161 -38 -78 -41 -89 -41
-170 -1 -108 9 -166 35 -208 21 -35 84 -94 99 -94 6 0 10 -18 10 -40 0 -50 22
-105 48 -119 21 -11 36 2 81 67 19 28 28 32 66 32 24 0 56 5 71 10 l27 11 -7
-53 c-4 -29 -16 -83 -28 -120 -20 -63 -20 -68 -5 -92 9 -14 17 -38 17 -54 0
-16 6 -34 13 -40 26 -21 123 -52 181 -56 34 -3 51 -3 39 0 -32 8 -41 23 -48
84 -5 38 -3 51 4 40 5 -8 7 -18 5 -22 -3 -5 0 -7 8 -6 7 2 12 -3 11 -10 -2 -6
1 -12 6 -12 5 0 11 10 13 23 2 13 9 -6 18 -45 l13 -67 61 -10 c34 -5 93 -13
133 -17 l72 -6 -69 69 c-61 61 -70 74 -70 106 l0 37 78 0 c44 0 113 -3 154 -6
l76 -7 16 -61 c8 -33 18 -72 22 -85 l7 -25 -37 23 c-53 33 -54 21 -1 -28 l45
-41 211 0 c197 0 253 4 168 13 -18 2 -59 15 -89 30 -30 15 -69 27 -86 27 -39
0 -56 32 -60 116 l-3 61 57 12 c61 12 203 11 196 -1 -3 -5 -1 -8 5 -8 5 0 11
5 13 11 4 12 34 13 89 3 23 -3 39 -2 43 5 4 6 32 11 62 11 46 0 54 -3 54 -19
0 -22 -34 -28 -170 -31 -134 -3 -107 -10 37 -10 128 0 130 0 141 -25 15 -33 4
-38 -128 -60 -185 -30 -186 -33 -13 -34 174 -1 198 -6 249 -54 29 -27 38 -29
105 -29 144 1 416 41 567 84 85 25 132 67 132 119 0 17 4 28 10 24 5 -3 3 7
-5 22 -8 15 -15 38 -15 51 0 19 5 22 35 22 25 0 35 4 35 15 0 9 7 18 15 21 8
4 12 10 9 15 -3 5 2 9 10 9 19 0 21 16 5 26 -7 4 2 11 22 18 19 6 32 14 29 17
-3 3 3 13 13 23 9 10 15 22 12 26 -3 5 12 21 35 35 39 24 52 45 29 45 -8 0 -8
5 1 15 10 12 10 15 -4 15 -22 0 -20 10 8 39 14 15 31 45 39 69 13 36 13 43 1
50 -13 7 -12 15 5 52 20 46 20 63 -1 42 -17 -17 -31 -15 -25 2 4 11 1 13 -10
9 -13 -5 -14 -3 -4 16 15 27 11 77 -6 74 -6 -2 -17 14 -24 35 -15 46 -28 64
-43 55 -6 -3 -8 -3 -4 2 4 4 0 26 -9 49 -21 52 -141 234 -165 249 -10 7 -18
15 -18 19 0 13 102 8 143 -6 32 -12 36 -12 26 0 -17 21 -76 34 -152 34 -64 0
-72 3 -112 35 -24 20 -52 55 -63 78 -14 30 -34 50 -71 72 -28 16 -50 34 -48
40 2 5 23 15 48 21 24 7 58 18 74 25 17 7 36 11 43 10 6 -1 27 10 46 24 18 14
40 23 48 20 17 -7 89 40 119 78 16 22 24 25 30 16 6 -11 15 -7 38 15 17 16 34
38 37 49 4 14 8 16 14 8 10 -18 78 64 92 111 6 20 15 35 19 32 14 -8 29 33 29
81 0 41 2 46 19 40 35 -11 39 59 9 154 -8 25 -7 35 3 41 10 7 7 20 -14 61 -14
30 -22 56 -17 59 5 3 -2 23 -16 43 -14 21 -22 42 -18 48 3 6 -3 24 -15 40 -11
15 -21 36 -21 45 0 9 -9 29 -20 44 l-20 28 29 7 c48 10 81 48 81 92 0 48 -22
136 -56 219 l-25 64 19 83 c72 296 72 708 1 925 -47 142 -129 179 -294 132
-53 -15 -201 -81 -286 -127 -3 -2 -32 17 -64 43 -73 56 -163 110 -230 136 -27
11 -99 44 -160 73 -116 57 -224 88 -365 105 -97 12 -239 11 -323 -1z m486 -57
c120 -32 227 -74 227 -90 0 -5 28 -20 63 -32 83 -30 172 -75 229 -116 57 -40
98 -75 98 -84 0 -5 -127 -115 -167 -145 -12 -9 -2 -44 51 -198 l65 -187 -27 6
c-15 4 30 -22 99 -58 69 -35 158 -86 198 -113 89 -60 275 -218 319 -271 62
-75 112 -205 111 -289 l0 -40 -30 64 c-76 165 -368 375 -745 537 -132 56 -158
57 -37 1 51 -24 98 -48 104 -54 7 -7 1 -21 -23 -49 l-33 -39 30 19 c17 11 36
28 43 38 13 17 14 17 53 -2 70 -36 41 -62 -74 -68 -89 -4 -113 1 -547 111
-364 93 -427 101 -770 102 -312 0 -386 -7 -580 -51 -275 -64 -409 -139 -440
-249 -14 -50 1 -88 47 -125 16 -12 28 -26 28 -31 0 -5 7 -14 15 -19 29 -19 -9
-10 -54 12 -60 29 -80 70 -73 148 2 31 14 74 25 96 30 59 135 152 233 206 72
40 85 51 87 75 5 59 24 93 68 124 24 16 42 34 39 39 -7 12 42 164 73 225 105
210 282 363 491 425 61 19 75 20 82 9 6 -11 17 -6 46 22 78 75 146 90 383 85
156 -3 188 -7 293 -34z m-1553 -73 c8 -4 24 -7 43 -8 10 0 15 -6 12 -11 -8
-13 17 -9 27 4 3 5 16 -6 27 -25 13 -21 21 -27 21 -17 0 30 18 29 54 -3 22
-19 36 -26 36 -18 1 10 5 8 14 -4 8 -10 18 -17 22 -15 5 1 22 -9 37 -24 16
-15 34 -25 41 -22 6 2 23 -7 36 -21 l24 -25 -26 -28 c-49 -53 -114 -159 -158
-260 -24 -56 -48 -102 -51 -102 -16 0 -88 66 -84 77 2 6 -8 19 -21 28 -32 21
-26 29 12 15 l29 -11 -30 25 c-43 36 -43 37 -46 -36 -1 -21 10 -61 19 -67 12
-9 9 -54 -4 -58 -14 -5 -6 -42 13 -65 8 -9 12 -21 9 -27 -3 -5 -1 -11 6 -13
17 -6 -19 -138 -37 -138 -7 0 -21 -3 -31 -7 -10 -4 -15 -2 -11 4 3 5 -16 33
-42 62 -63 69 -91 119 -72 130 9 6 10 10 2 16 -7 3 -9 15 -6 25 5 15 2 18 -14
15 -11 -2 -24 1 -27 7 -4 7 -2 8 4 4 7 -4 12 -3 12 3 0 5 -5 13 -11 17 -6 3
-8 17 -4 31 3 14 2 22 -4 19 -5 -3 -7 3 -4 14 6 23 23 17 23 -8 0 -14 2 -15 9
-3 6 10 3 27 -10 52 -22 44 -24 53 -7 43 8 -5 9 4 4 34 -4 25 -2 42 4 42 10 0
2 31 -11 40 -4 3 -10 19 -14 35 l-6 30 15 -32 c15 -33 41 -47 29 -16 -5 12 -3
14 8 8 9 -6 8 0 -5 19 -10 16 -13 25 -7 22 11 -7 15 11 11 49 -2 16 1 17 13 7
12 -10 16 -9 21 4 10 25 7 66 -8 109 -14 40 -12 61 4 36 4 -8 6 -19 4 -25 -3
-7 2 -20 10 -31 13 -18 13 -16 6 23 -6 36 -5 40 7 31 11 -10 12 -8 4 13 -5 14
-7 28 -4 31 5 5 72 2 83 -4z m2609 -121 c11 -10 13 -10 7 0 -5 8 0 12 15 12
18 0 19 -2 9 -15 -16 -20 -6 -19 14 0 8 8 17 11 20 6 3 -5 -11 -24 -32 -42
-37 -32 -66 -69 -43 -55 15 10 14 -7 -1 -23 -11 -11 -9 -11 10 -2 12 6 22 9
22 5 0 -4 10 1 22 12 19 15 20 16 9 2 -11 -15 -11 -18 1 -18 19 0 17 -38 -3
-51 -10 -8 -9 -9 7 -4 17 4 24 -1 34 -26 l13 -31 20 23 c17 21 16 19 -2 -15
-20 -35 -21 -83 -2 -71 5 2 7 -9 6 -25 -1 -17 1 -30 6 -30 5 0 9 -7 9 -16 0
-9 5 -12 13 -8 8 5 8 2 -2 -9 -16 -20 -25 -23 -15 -4 4 6 3 9 -1 5 -12 -12
-14 -89 -2 -81 7 4 8 -1 2 -13 -8 -19 -14 -72 -16 -132 -1 -17 -12 -48 -25
-67 -18 -27 -20 -35 -9 -35 8 0 15 -4 15 -8 0 -14 -30 -71 -41 -78 -6 -4 -6
-10 1 -19 7 -9 6 -16 -5 -25 -8 -7 -15 -18 -15 -24 0 -7 -18 -24 -39 -38 l-39
-25 -57 45 c-50 39 -56 48 -50 71 4 14 13 33 21 42 19 22 18 49 -3 49 -14 0
-10 7 15 28 36 30 42 61 12 69 -19 5 -19 6 5 37 13 17 28 43 34 57 9 25 8 26
-12 21 -20 -5 -20 -4 -8 11 7 9 9 17 4 17 -4 0 -8 27 -8 60 0 33 -2 60 -5 60
-3 -1 -16 -7 -30 -15 l-25 -15 30 6 c29 5 29 5 -17 -39 -31 -29 -41 -43 -28
-40 36 9 9 -34 -40 -67 -37 -25 -41 -30 -22 -30 22 0 22 -1 6 -26 -18 -26 -80
-62 -146 -83 -32 -11 -41 -10 -62 6 -14 10 -26 24 -26 31 0 6 -4 12 -9 12 -15
0 -23 57 -11 79 6 12 7 21 1 21 -5 0 -7 10 -4 23 5 21 5 21 -9 3 -15 -19 -16
-19 -27 2 -7 14 -8 23 -1 27 5 3 10 12 10 18 0 7 -4 6 -10 -3 -5 -8 -12 -12
-15 -8 -4 3 1 19 11 35 10 16 12 23 4 16 -19 -18 -28 -16 -33 5 -2 9 6 28 17
42 l21 25 -21 -18 c-25 -21 -34 -14 -34 29 0 25 11 44 48 83 26 27 54 51 62
53 8 2 24 12 36 24 34 32 92 66 103 59 6 -3 17 5 26 19 10 15 22 23 31 19 8
-3 24 3 36 13 19 17 21 17 15 2 -9 -26 0 -22 33 15 16 17 30 27 30 20 0 -7 13
-5 38 7 43 22 83 25 101 8z m-2771 -93 c-3 -3 -9 2 -12 12 -6 14 -5 15 5 6 7
-7 10 -15 7 -18z m2927 -325 c-3 -5 -11 -10 -16 -10 -6 0 -7 5 -4 10 3 6 11
10 16 10 6 0 7 -4 4 -10z m-2117 -451 c59 -12 104 -48 135 -108 18 -35 28 -45
50 -45 15 -1 27 1 27 5 0 3 18 3 39 -1 22 -4 45 -4 52 1 7 4 21 3 31 -2 10 -6
23 -7 29 -3 6 4 15 0 20 -7 6 -10 9 -10 9 -2 0 7 11 12 25 11 14 -1 25 -5 25
-8 0 -3 16 -5 35 -4 30 2 35 -1 35 -20 1 -18 2 -18 10 -5 6 10 22 16 42 15 30
-1 33 -4 30 -28 -4 -36 14 -44 21 -9 6 27 9 29 42 26 20 -2 42 -11 49 -21 17
-23 27 -15 60 50 41 82 76 100 176 93 147 -10 237 -74 224 -158 l-6 -36 84
-11 c47 -6 109 -21 139 -32 71 -28 94 -31 157 -20 42 7 60 6 90 -7 66 -28 97
-46 119 -70 12 -13 29 -23 38 -23 8 0 15 -9 15 -20 0 -13 7 -20 19 -20 22 0
52 -30 30 -30 -8 -1 0 -12 16 -25 21 -18 25 -25 14 -25 -9 0 -20 -7 -23 -16
-3 -8 -2 -12 4 -9 12 7 35 -14 35 -32 0 -6 17 -23 38 -37 40 -28 64 -36 31
-11 -10 8 -14 15 -8 15 5 0 23 -13 38 -29 28 -29 28 -30 5 -25 -19 5 -21 4 -9
-5 8 -6 23 -11 33 -11 9 0 17 -7 17 -15 0 -25 -26 -17 -53 15 -14 17 -30 30
-36 30 -22 0 -20 -20 4 -46 29 -31 34 -67 9 -57 -14 5 -15 3 -5 -15 6 -12 19
-26 29 -31 9 -6 13 -11 8 -11 -5 0 -1 -9 9 -20 18 -20 17 -20 -16 -20 l-34 0
27 -14 c15 -8 37 -21 49 -30 12 -8 27 -12 34 -10 7 3 16 0 20 -7 5 -7 3 -10
-6 -7 -18 6 -38 -13 -31 -30 3 -10 -4 -12 -34 -8 -39 6 -39 6 -11 -7 23 -11
76 -77 77 -97 0 -13 -65 -9 -86 5 -30 19 -33 19 -31 -3 0 -10 9 -19 19 -19 17
-2 107 -61 109 -72 1 -3 3 -19 5 -35 l3 -29 -23 22 c-26 24 -45 29 -26 6 20
-24 4 -29 -19 -6 -31 31 -35 25 -11 -15 12 -19 21 -37 19 -38 -2 -2 -22 8 -44
22 -46 30 -66 34 -83 15 -7 -7 -9 -13 -5 -13 5 0 9 -9 10 -20 2 -25 46 -87 51
-72 2 6 -2 20 -8 31 -7 14 -7 21 0 21 17 0 48 -60 43 -81 -6 -22 -21 -25 -29
-5 -3 8 -12 17 -20 20 -11 4 -13 -1 -10 -19 6 -30 -9 -33 -26 -5 -13 20 -38
28 -38 11 0 -5 -8 -7 -19 -4 -15 4 -19 -3 -24 -34 -4 -23 -17 -49 -32 -63 -14
-13 -25 -20 -25 -15 0 4 -9 -2 -20 -15 -11 -13 -20 -29 -20 -37 0 -7 -12 -19
-27 -26 -15 -6 -41 -27 -56 -44 -16 -18 -38 -33 -48 -33 -10 0 -19 -4 -19 -8
0 -5 -24 -19 -52 -31 -29 -12 -60 -26 -69 -31 -8 -4 -28 -5 -44 -3 -18 4 -26
2 -22 -5 8 -11 -14 -22 -44 -22 -10 0 -19 -5 -19 -11 0 -8 -13 -9 -40 -5 -25
4 -40 2 -40 -4 0 -5 -22 -10 -50 -10 -27 0 -50 -4 -50 -9 0 -11 -57 -24 -97
-21 -19 1 -33 -3 -33 -9 0 -7 -10 -9 -25 -5 -16 4 -25 2 -25 -6 0 -7 -8 -10
-20 -7 -11 3 -22 1 -25 -3 -3 -4 -23 -6 -45 -4 -28 2 -39 0 -37 -9 1 -8 -16
-12 -60 -12 -35 0 -63 -4 -63 -8 0 -5 -11 -6 -25 -3 -31 8 -32 -7 -2 -31 35
-27 41 -64 14 -85 -32 -25 -10 -22 82 11 45 15 81 27 81 25 0 -2 -33 -29 -72
-61 -40 -32 -144 -120 -232 -195 -141 -121 -163 -137 -185 -130 -14 4 -42 6
-62 5 -36 -2 -38 0 -97 90 -56 85 -152 261 -173 315 -8 22 -5 21 38 -11 54
-39 106 -67 124 -67 7 0 -3 10 -22 23 -29 20 -34 29 -34 63 0 21 4 50 9 63 6
18 5 22 -5 16 -9 -6 -11 -4 -6 7 4 12 1 14 -14 11 -10 -3 -25 0 -32 6 -8 6
-17 8 -20 5 -3 -4 -27 3 -52 15 -24 11 -54 21 -65 21 -11 0 -20 7 -20 15 0 11
-11 15 -40 15 -25 0 -43 5 -46 14 -3 8 -27 16 -55 20 -27 4 -49 10 -49 15 0 5
-20 14 -45 21 -24 7 -43 16 -40 20 3 4 -14 10 -36 14 -30 5 -43 12 -46 27 -3
12 -12 18 -22 16 -20 -4 -71 20 -71 34 0 6 -7 8 -16 5 -17 -7 -67 24 -101 63
-12 14 -25 22 -28 19 -7 -7 -50 34 -66 63 -6 11 -13 18 -17 15 -3 -4 -15 14
-27 39 -12 24 -25 42 -29 38 -3 -3 -6 3 -6 15 0 15 -5 20 -15 16 -15 -6 -21 7
-8 20 9 8 12 46 3 46 -3 0 -11 -5 -18 -12 -8 -8 -11 -4 -9 18 2 22 -2 29 -15
28 -10 -1 -16 2 -13 6 3 5 7 29 10 54 3 33 1 45 -8 43 -7 -1 -11 7 -10 21 4
31 -8 27 -36 -13 -30 -45 -49 -46 -22 -2 11 19 18 37 14 41 -4 4 0 4 9 1 10
-4 22 2 32 17 18 25 21 42 6 33 -5 -3 -10 2 -10 11 0 13 -5 11 -23 -9 -12 -15
-26 -27 -30 -27 -9 0 -4 37 7 47 8 8 12 9 40 12 8 0 16 8 20 16 4 13 2 14 -14
5 -16 -9 -18 -8 -14 5 4 8 12 15 19 15 7 0 19 7 26 17 13 15 12 15 -11 3 -25
-13 -25 -13 -7 8 18 20 18 20 -2 15 -12 -3 -29 -19 -37 -35 -16 -32 -39 -29
-28 4 5 17 3 20 -10 15 -14 -6 -15 -3 -5 14 6 12 35 32 65 46 29 13 56 28 59
33 7 11 -38 -1 -46 -12 -9 -14 -43 -17 -51 -4 -9 13 10 36 29 36 8 0 11 5 8
10 -3 6 -1 10 5 10 6 0 8 5 5 10 -3 6 -1 10 5 10 6 0 8 5 5 10 -3 6 -1 10 5
10 6 0 8 5 5 10 -3 6 -1 10 4 10 6 0 10 3 9 8 -4 15 16 58 42 92 15 19 27 42
28 50 0 8 8 49 16 90 14 64 22 80 56 113 32 30 45 36 67 32 20 -4 23 -3 9 3
-16 7 -10 12 35 30 30 13 63 28 74 34 32 18 163 57 216 64 46 6 54 12 50 42
-4 26 33 84 63 99 61 32 104 37 174 22z m2062 -48 c0 -5 -7 -12 -16 -15 -14
-5 -15 -4 -4 9 14 17 20 19 20 6z m10 -36 c-7 -8 -20 -15 -29 -15 -11 1 -8 5
9 15 32 18 35 18 20 0z m-59 -552 c13 -16 12 -17 -3 -4 -17 13 -22 21 -14 21
2 0 10 -8 17 -17z m69 -179 c0 -6 -15 3 -52 30 -16 11 -28 24 -28 29 0 5 18
-6 40 -23 22 -17 40 -34 40 -36z m26 -92 c-4 -3 -14 2 -24 12 -16 18 -16 18 6
6 13 -6 21 -14 18 -18z m1 -39 c-4 -3 1 -12 11 -19 15 -12 15 -13 1 -14 -23 0
-44 26 -27 33 19 8 22 8 15 0z m-3036 -106 c-10 -9 -11 -8 -5 6 3 10 9 15 12
12 3 -3 0 -11 -7 -18z m39 -43 c-18 -21 -24 -10 -9 18 8 14 14 18 17 10 2 -7
-2 -19 -8 -28z m3010 4 c0 -6 -7 -5 -15 2 -8 7 -15 17 -15 22 0 6 7 5 15 -2 8
-7 15 -17 15 -22z m-2990 -68 c-12 -22 -25 -26 -36 -8 -4 6 -3 8 3 5 6 -4 16
0 23 8 18 21 23 19 10 -5z m530 -814 c-13 -87 -71 -390 -75 -394 -16 -17 -218
203 -236 255 -9 28 -8 38 8 62 21 33 239 211 258 211 4 0 17 12 29 27 l21 28
3 -59 c2 -32 -2 -91 -8 -130z m1953 140 c35 -15 74 -52 79 -76 2 -8 17 -21 34
-30 103 -51 254 -228 254 -298 0 -21 -4 -18 -33 20 -43 57 -106 81 -194 73
-76 -7 -114 -20 -178 -60 -75 -48 -112 -91 -156 -182 -22 -46 -44 -83 -49 -83
-5 0 -18 30 -30 66 -72 235 59 572 228 583 7 1 27 -5 45 -13z m-1471 -291 c6
-12 -1 -8 -16 9 -14 16 -26 34 -26 40 1 12 26 -17 42 -49z m-755 -115 c71 -80
116 -140 110 -147 -4 -3 -22 2 -41 11 -37 18 -91 22 -81 6 3 -5 30 -17 59 -25
56 -16 96 -48 77 -60 -6 -3 -11 -11 -11 -16 0 -6 5 -7 10 -4 17 11 11 -7 -7
-21 -17 -13 -17 -14 1 -8 16 6 17 4 7 -14 -6 -11 -8 -27 -5 -35 3 -9 -13 -30
-41 -55 -39 -35 -56 -42 -118 -52 -40 -6 -78 -13 -86 -16 -11 -3 -11 -1 -2 10
12 15 33 76 25 76 -2 0 -10 -15 -18 -32 -13 -29 -14 -30 -15 -10 -1 13 -5 20
-11 17 -5 -3 -10 0 -10 7 -1 8 -6 6 -15 -6 -13 -17 -15 -17 -15 -3 0 10 -5 14
-15 11 -8 -4 -15 -1 -15 6 0 6 -4 8 -10 5 -6 -4 -11 13 -12 42 -2 82 3 107 36
173 15 30 35 62 46 71 11 9 16 19 13 23 -4 4 3 14 16 22 12 9 26 27 31 40 5
13 17 24 25 24 10 0 13 5 9 11 -17 27 17 0 63 -51z m2469 29 c20 -12 50 -48
73 -87 34 -58 37 -68 23 -74 -16 -6 -16 -7 0 -7 9 -1 20 -6 24 -13 4 -7 3 -8
-4 -4 -17 10 -15 -6 3 -30 8 -10 14 -26 15 -34 0 -12 -2 -12 -9 -2 -17 27 -21
-19 -5 -51 l17 -32 -22 19 -22 20 4 -35 c2 -20 8 -42 12 -50 8 -12 6 -12 -8 0
-15 12 -17 10 -18 -15 -1 -16 -1 -33 0 -37 1 -5 -4 -5 -10 -1 -6 3 -15 0 -20
-7 -11 -18 -12 -42 -1 -35 5 3 14 -4 22 -14 10 -14 18 -17 32 -9 17 9 18 7 12
-18 -12 -52 -34 -96 -72 -145 -57 -76 -88 -91 -200 -95 -56 -2 -111 2 -131 8
-49 16 -111 59 -111 75 0 8 -6 14 -14 14 -23 0 -84 77 -96 121 -10 36 -9 48 7
83 10 22 29 54 43 70 22 27 23 28 3 18 -12 -7 -33 -26 -47 -44 l-25 -32 -6 26
c-9 35 23 95 76 144 23 22 50 47 60 56 9 9 20 14 23 11 3 -4 6 -2 6 4 0 6 12
14 27 18 15 3 31 11 34 16 3 6 24 17 45 24 38 14 38 14 9 15 l-30 1 24 19 c13
11 29 20 37 20 8 0 14 4 14 9 0 14 -42 0 -77 -26 -35 -26 -44 -21 -16 9 18 20
4 25 -15 6 -7 -7 -12 -8 -12 -2 0 42 155 112 249 113 28 1 56 -7 77 -20z
m-1586 -113 c0 -11 0 -11 -29 34 l-23 35 26 -30 c14 -16 26 -34 26 -39z m120
-16 c12 -7 14 -30 12 -117 -4 -145 -3 -143 -61 -143 -28 0 -53 6 -60 13 -16
20 1 236 20 248 18 11 70 11 89 -1z m823 -173 c12 -51 5 -57 -113 -95 -147
-47 -148 -47 -162 -16 -11 23 -10 28 7 40 17 12 17 14 2 14 -54 0 31 51 138
82 33 9 73 16 90 15 25 -2 31 -7 38 -40z m-1282 5 c56 -50 60 -166 6 -206 -21
-16 -32 -18 -45 -10 -54 34 -87 146 -58 202 26 49 53 53 97 14z m-119 -23
c-13 -23 -27 -35 -45 -37 -50 -6 -25 52 28 67 17 4 31 7 33 6 2 -2 -6 -18 -16
-36z m-102 -13 c0 -20 -28 -46 -50 -46 -16 0 -71 -26 -214 -104 -50 -27 -90
-33 -101 -17 -6 10 6 15 65 27 20 4 56 25 84 51 55 49 90 70 151 89 53 17 65
17 65 0z m1534 -158 c49 -158 49 -161 6 -169 -19 -4 -68 -14 -109 -23 -61 -14
-77 -15 -87 -4 -11 11 -84 213 -84 231 0 4 8 7 18 7 9 0 52 12 96 25 43 14 81
23 84 21 2 -3 11 1 19 9 8 8 16 15 18 15 3 0 20 -51 39 -112z m-736 -4 c6 -2
12 -15 12 -29 0 -18 -5 -25 -20 -25 -11 0 -20 5 -20 10 0 6 -54 10 -142 10
l-143 0 3 -50 c4 -47 5 -50 32 -50 38 0 60 -9 60 -26 0 -10 -13 -14 -45 -14
-44 0 -45 -1 -45 -32 0 -18 4 -38 8 -44 10 -16 270 -25 276 -10 6 14 26 -12
26 -35 0 -13 -22 -15 -174 -15 l-174 1 -6 65 c-3 36 -6 109 -6 163 l0 98 173
-6 c94 -4 178 -8 185 -11z m-1234 -67 c-16 -33 -34 -41 -34 -16 0 6 5 7 10 4
13 -8 13 8 -1 22 -8 8 -7 13 2 18 8 5 10 4 5 -3 -4 -7 -2 -12 4 -12 6 0 13 7
17 15 3 9 7 14 10 12 2 -3 -4 -21 -13 -40z m1505 27 c2 -2 -35 -4 -82 -4 -53
0 -87 4 -87 10 0 10 158 3 169 -6z m119 -11 c-16 -2 -40 -2 -55 0 -16 2 -3 4
27 4 30 0 43 -2 28 -4z m-1168 -127 c0 -13 3 -31 6 -40 4 -11 -4 -17 -28 -24
-29 -7 -34 -6 -40 12 -12 41 -8 54 20 64 40 15 42 14 42 -12z m1467 -42 c-3
-3 -12 -4 -19 -1 -8 3 -5 6 6 6 11 1 17 -2 13 -5z m-44 -11 c-7 -2 -21 -2 -30
0 -10 3 -4 5 12 5 17 0 24 -2 18 -5z m-1353 -23 c0 -12 -95 -40 -134 -39 -21
0 -11 5 31 14 34 8 70 18 80 24 23 13 23 13 23 1z m1664 -50 c10 -13 9 -13 -6
-1 -10 7 -17 23 -17 35 1 20 2 20 6 1 3 -11 10 -27 17 -35z m-234 11 c12 -24
12 -32 1 -50 -13 -20 -41 3 -41 34 0 38 23 47 40 16z m394 -22 c-5 -8 -1 -8
13 0 26 13 31 8 25 -29 -5 -34 -21 -38 -46 -11 -16 18 -13 51 6 51 5 0 6 -5 2
-11z m-827 -65 c-3 -3 -12 -4 -19 -1 -8 3 -5 6 6 6 11 1 17 -2 13 -5z m-411
-39 c7 -2 15 -28 18 -57 4 -29 9 -65 12 -80 5 -26 3 -28 -28 -28 -25 0 -29 -3
-18 -10 11 -7 8 -10 -16 -10 -23 0 -36 7 -48 24 -19 29 -57 162 -49 170 6 5
104 -2 129 -9z"/>
<path d="M2456 4578 c-19 -29 -61 -131 -70 -173 -7 -29 -7 -29 8 -10 8 11 16
26 16 33 0 7 16 47 35 89 35 76 40 106 11 61z"/>
<path d="M2654 4345 c-71 -42 -138 -85 -149 -95 -19 -20 -19 -20 10 -20 51 0
54 -7 39 -90 -7 -41 -13 -89 -13 -106 l-1 -31 118 -6 c64 -4 151 -10 193 -13
l76 -7 11 99 c6 54 9 100 7 102 -2 2 -6 -18 -10 -45 -14 -105 -18 -116 -48
-117 -15 -1 -27 1 -27 4 0 3 -8 6 -17 7 -10 0 -63 6 -117 11 -55 6 -103 9
-107 6 -4 -2 -11 1 -15 7 -4 8 -9 7 -15 -2 -6 -10 -9 -8 -9 9 0 13 -4 20 -10
17 -13 -8 -13 18 0 85 7 38 7 57 -1 66 -6 8 -9 21 -5 29 5 15 99 79 182 125
l42 23 41 -33 c23 -19 43 -31 46 -28 5 5 -77 78 -87 78 -2 0 -62 -34 -134 -75z
m266 -351 c0 -2 -15 -4 -32 -4 -23 0 -29 3 -19 9 12 8 51 4 51 -5z"/>
<path d="M2943 4264 c52 -55 55 -61 30 -67 -10 -3 -1 -5 20 -6 34 -1 37 1 28
17 -10 18 -81 80 -111 97 -8 4 6 -14 33 -41z"/>
<path d="M2626 4202 c-2 -4 11 -6 30 -4 19 2 34 6 34 8 0 8 -59 4 -64 -4z"/>
<path d="M2612 4140 c0 -14 2 -19 5 -12 2 6 2 18 0 25 -3 6 -5 1 -5 -13z"/>
<path d="M2872 4120 c0 -14 2 -19 5 -12 2 6 2 18 0 25 -3 6 -5 1 -5 -13z"/>
<path d="M1894 4014 c-18 -14 -18 -14 6 -3 31 14 36 19 24 19 -6 0 -19 -7 -30
-16z"/>
<path d="M3550 3950 c8 -5 20 -10 25 -10 6 0 3 5 -5 10 -8 5 -19 10 -25 10 -5
0 -3 -5 5 -10z"/>
<path d="M3616 3915 c14 -14 30 -25 35 -25 6 0 -3 11 -19 25 -17 14 -32 25
-35 25 -4 0 5 -11 19 -25z"/>
<path d="M3621 3864 c0 -11 3 -14 6 -6 3 7 2 16 -1 19 -3 4 -6 -2 -5 -13z"/>
<path d="M1490 4088 c0 -9 7 -22 17 -29 15 -13 15 -12 3 11 -17 34 -20 36 -20
18z"/>
<path d="M3730 4215 c-7 -9 -8 -15 -2 -15 5 0 12 7 16 15 3 8 4 15 2 15 -2 0
-9 -7 -16 -15z"/>
<path d="M2035 3301 c-160 -74 -216 -302 -105 -432 l29 -34 -25 49 c-17 35
-24 66 -24 106 0 142 83 246 210 264 37 5 41 4 20 -4 -138 -59 -183 -263 -83
-379 44 -52 80 -71 133 -71 58 0 91 21 132 82 62 92 73 205 30 300 -24 52 -75
106 -119 124 -47 20 -150 17 -198 -5z m249 -123 c13 -19 14 -25 2 -43 -26 -40
-86 -27 -86 19 0 47 57 63 84 24z"/>
<path d="M3228 3231 c-54 -34 -92 -82 -113 -140 -21 -61 -18 -84 4 -34 23 50
59 100 77 107 7 3 2 -11 -12 -31 -53 -78 -59 -189 -16 -268 35 -64 90 -96 176
-102 141 -12 219 56 235 206 l7 66 8 -49 c8 -45 3 -76 -28 -171 -3 -11 5 4 20
33 96 197 -32 412 -246 412 -56 0 -73 -5 -112 -29z m202 -87 c21 -25 1 -68
-33 -72 -16 -2 -35 2 -43 9 -17 14 -18 51 -2 67 17 17 63 15 78 -4z"/>
<path d="M2530 2941 c-144 -47 -175 -151 -77 -258 41 -45 89 -75 139 -87 19
-4 28 -14 33 -38 6 -27 3 -35 -21 -55 -86 -69 -237 -83 -309 -29 -39 30 -74
93 -75 136 -1 24 -1 25 -10 3 -5 -12 -6 -39 -3 -60 8 -49 82 -124 139 -141 40
-12 44 -16 98 -127 32 -65 72 -130 92 -151 87 -86 235 -104 359 -41 69 35 166
143 212 237 37 76 47 88 92 113 42 23 69 50 108 106 2 2 12 -4 23 -14 20 -18
20 -17 20 9 0 32 -37 72 -75 82 -34 8 -41 0 -22 -27 14 -19 14 -26 2 -48 -35
-69 -121 -111 -239 -118 -136 -9 -317 52 -351 117 -19 37 -15 42 42 59 46 13
115 61 146 102 10 15 23 45 27 68 11 60 -13 99 -85 136 -49 25 -70 30 -148 32
-51 1 -103 -1 -117 -6z m223 -43 c9 -5 17 -14 17 -20 0 -8 -26 -9 -86 -4 -89
6 -134 20 -104 30 46 16 137 13 173 -6z m-23 -603 c12 -15 35 -11 25 4 -2 5 6
8 18 7 14 -1 22 -7 21 -19 -1 -12 2 -15 10 -9 12 10 18 11 101 16 39 2 68 -2
83 -11 22 -14 22 -14 5 -44 -25 -43 -88 -98 -137 -119 -99 -43 -223 -31 -280
29 -27 28 -27 30 -12 59 18 36 54 64 70 55 6 -3 7 -2 3 2 -8 9 47 44 69 45 6
0 17 -7 24 -15z"/>
<path d="M1510 2910 c-9 -6 -10 -10 -3 -10 6 0 15 5 18 10 8 12 4 12 -15 0z"/>
<path d="M4270 2528 c1 -16 39 -63 46 -56 6 7 -28 68 -38 68 -5 0 -8 -6 -8
-12z"/>
<path d="M1787 1113 c-11 -11 -8 -20 7 -20 8 0 12 6 9 14 -6 15 -7 15 -16 6z"/>
<path d="M2621 1242 c-1 -42 0 -43 26 -40 19 2 29 10 31 23 2 15 1 17 -6 6
-15 -21 -40 -6 -45 26 -3 20 -4 16 -6 -15z"/>
<path d="M2189 1113 c-15 -40 -6 -45 12 -7 9 19 12 34 7 34 -4 0 -13 -12 -19
-27z"/>
<path d="M4310 1716 c0 -7 102 -78 105 -74 7 6 -9 23 -40 44 -30 21 -65 37
-65 30z"/>
<path d="M4451 1637 c19 -18 43 -50 54 -70 17 -33 35 -48 35 -31 0 20 -97 134
-113 134 -6 0 5 -15 24 -33z"/>
<path d="M4540 1567 c0 -8 6 -20 14 -26 8 -7 26 -41 41 -76 15 -36 31 -62 35
-60 4 3 11 -3 15 -13 13 -31 35 -146 35 -182 0 -26 3 -31 10 -20 5 8 10 11 11
5 0 -5 2 -35 5 -65 3 -39 -1 -72 -16 -114 -25 -73 -25 -81 0 -36 27 51 46 161
31 188 -6 11 -11 36 -11 56 0 19 -7 41 -15 50 -8 8 -15 31 -15 51 0 43 -26
109 -39 100 -6 -3 -25 28 -44 68 -34 73 -57 103 -57 74z"/>
<path d="M4688 947 c-30 -12 -37 -27 -13 -27 8 0 15 -4 15 -8 0 -14 -70 -126
-98 -156 -22 -23 -23 -27 -6 -18 24 12 87 80 103 111 9 16 33 115 27 110 0 -1
-13 -6 -28 -12z"/>
<path d="M4545 696 c-29 -14 -35 -21 -22 -24 9 -2 17 -7 17 -10 0 -12 -69 -52
-89 -52 -10 0 -21 -6 -24 -14 -3 -8 -25 -21 -49 -27 -24 -7 -46 -17 -49 -22
-3 -4 -28 -12 -55 -17 l-49 -9 60 4 c81 6 188 60 268 136 64 60 61 72 -8 35z"/>
</g>
</svg>
